<?xml version="1.0" encoding="UTF-8" standalone="no"?>
<svg
   xmlns:dc="http://purl.org/dc/elements/1.1/"
   xmlns:cc="http://creativecommons.org/ns#"
   xmlns:rdf="http://www.w3.org/1999/02/22-rdf-syntax-ns#"
   xmlns:svg="http://www.w3.org/2000/svg"
   xmlns="http://www.w3.org/2000/svg"
   xmlns:sodipodi="http://sodipodi.sourceforge.net/DTD/sodipodi-0.dtd"
   xmlns:inkscape="http://www.inkscape.org/namespaces/inkscape"
   width="466.43048"
   height="389.65863"
   version="1.1"
   id="svg4"
   sodipodi:docname="ids-logo-icons-graph-5.svg"
   inkscape:version="0.92.3 (2405546, 2018-03-11)">
  <metadata
     id="metadata10">
    <rdf:RDF>
      <cc:Work
         rdf:about="">
        <dc:format>image/svg+xml</dc:format>
        <dc:type
           rdf:resource="http://purl.org/dc/dcmitype/StillImage" />
        <dc:title />
      </cc:Work>
    </rdf:RDF>
  </metadata>
  <defs
     id="defs8" />
  <sodipodi:namedview
     pagecolor="#ffffff"
     bordercolor="#666666"
     borderopacity="1"
     objecttolerance="10"
     gridtolerance="10"
     guidetolerance="10"
     inkscape:pageopacity="0"
     inkscape:pageshadow="2"
     inkscape:window-width="2560"
     inkscape:window-height="1384"
     id="namedview6"
     showgrid="false"
     inkscape:zoom="1.6941849"
     inkscape:cx="122.35004"
     inkscape:cy="259.2062"
     inkscape:window-x="0"
     inkscape:window-y="0"
     inkscape:window-maximized="1"
     inkscape:current-layer="svg4"
     fit-margin-top="0"
     fit-margin-left="0"
     fit-margin-right="0"
     fit-margin-bottom="0"
     showguides="false" />
  <text
     xml:space="preserve"
     style="font-style:normal;font-variant:normal;font-weight:normal;font-stretch:normal;font-size:176.20222473px;line-height:1.25;font-family:'TheSans B6 SemiBold';-inkscape-font-specification:'TheSans B6 SemiBold, ';letter-spacing:0px;word-spacing:0px;fill:#03a1da;fill-opacity:1;stroke:none;stroke-width:4.405056"
     x="104.12136"
     y="236.41721"
     id="text830"
     transform="scale(0.99791625,1.0020881)"><tspan
       sodipodi:role="line"
       id="tspan828"
       x="104.12136"
       y="236.41721"
       style="font-style:normal;font-variant:normal;font-weight:normal;font-stretch:normal;font-family:'TheSans B6 SemiBold';-inkscape-font-specification:'TheSans B6 SemiBold, ';fill:#03a1da;fill-opacity:1;stroke-width:4.405056">IDS</tspan></text>
  <flowRoot
     xml:space="preserve"
     id="flowRoot819-3"
     style="font-style:normal;font-weight:normal;font-size:40px;line-height:1.25;font-family:sans-serif;letter-spacing:0px;word-spacing:0px;fill:#03a1da;fill-opacity:1;stroke:none"
     transform="matrix(0.06832167,0,0,0.06832167,89.58225,245.86527)"
     inkscape:export-xdpi="98.882576"
     inkscape:export-ydpi="98.882576"><flowRegion
       id="flowRegion821-6"
       style="fill:#03a1da;fill-opacity:1"><rect
         id="rect823-7"
         width="3657.3103"
         height="1009.8737"
         x="389.76068"
         y="75.208961"
         style="fill:#03a1da;fill-opacity:1" /></flowRegion><flowPara
       style="font-style:normal;font-variant:normal;font-weight:normal;font-stretch:normal;font-size:320px;font-family:'TheSans B6 SemiBold';-inkscape-font-specification:'TheSans B6 SemiBold, ';fill:#03a1da;fill-opacity:1"
       id="flowPara4563">Institute of Data Science</flowPara></flowRoot>  <g
     id="g882"
     transform="matrix(0.09789968,0,0,0.09789968,327.78916,328.50728)">
    <path
       id="path818"
       d="m 151.977,297.818 c -4.385,32.7 -32.377,57.924 -66.278,57.924 -33.901,0 -61.892,-25.224 -66.278,-57.924 z"
       style="fill:#feca57"
       inkscape:connector-curvature="0" />
    <path
       id="path820"
       d="M 148.13,284.974 90.424,128.943 c -1.48,-4.002 0.564,-8.447 4.567,-9.927 4.001,-1.482 8.447,0.564 9.927,4.567 l 57.706,156.031 c 1.48,4.002 -0.564,8.447 -4.567,9.927 -3.997,1.479 -8.445,-0.561 -9.927,-4.567 z"
       style="fill:#ccd2db"
       inkscape:connector-curvature="0" />
    <path
       id="path822"
       d="m 19.566,289.541 c -4.002,-1.48 -6.047,-5.925 -4.567,-9.927 L 72.705,123.583 c 1.48,-4.002 5.922,-6.049 9.927,-4.567 4.002,1.48 6.047,5.925 4.567,9.927 L 29.493,284.974 c -1.48,4.002 -5.925,6.047 -9.927,4.567 z"
       style="fill:#ccd2db"
       inkscape:connector-curvature="0" />
    <path
       id="path824"
       d="m 353.916,289.531 c -3.997,-1.495 -6.025,-5.948 -4.53,-9.944 l 57.706,-154.278 c 1.496,-3.997 5.948,-6.024 9.944,-4.53 3.997,1.495 6.026,5.948 4.53,9.944 L 363.86,285.001 c -1.495,3.997 -5.948,6.024 -9.944,4.53 z"
       style="fill:#ccd2db"
       inkscape:connector-curvature="0" />
    <path
       id="path826"
       d="M 482.517,285.001 424.811,130.723 c -1.495,-3.997 0.533,-8.449 4.53,-9.944 3.998,-1.494 8.449,0.533 9.944,4.53 l 57.706,154.278 c 1.495,3.997 -0.533,8.449 -4.53,9.944 -3.994,1.494 -8.448,-0.531 -9.944,-4.53 z"
       style="fill:#ccd2db"
       inkscape:connector-curvature="0" />
    <g
       id="g830">
      <path
         id="path828"
         d="m 101.321,134.48 c -3.942,0 -7.308,-3.002 -7.684,-7.005 -0.399,-4.249 2.722,-8.017 6.971,-8.416 25.676,-2.411 32.516,-5.334 134.295,-33.25 4.115,-1.128 8.367,1.292 9.496,5.408 1.129,4.115 -1.292,8.367 -5.408,9.496 -102.314,28.063 -109.932,31.197 -136.938,33.733 -0.246,0.023 -0.49,0.034 -0.732,0.034 z"
         style="fill:#3e4b5a"
         inkscape:connector-curvature="0" />
    </g>
    <g
       id="g834">
      <path
         id="path832"
         d="m 412.574,135.02 c -0.242,0 -0.485,-0.011 -0.731,-0.034 -28.034,-2.633 -35.536,-5.772 -142.381,-35.077 -4.115,-1.129 -6.537,-5.38 -5.408,-9.496 1.129,-4.115 5.382,-6.536 9.496,-5.408 106.996,29.346 113.421,32.123 139.738,34.594 4.249,0.399 7.37,4.167 6.971,8.416 -0.376,4.003 -3.743,7.005 -7.685,7.005 z"
         style="fill:#3e4b5a"
         inkscape:connector-curvature="0" />
    </g>
    <path
       id="path836"
       d="m 255.49,57.83 c 5.529,0 10.707,1.495 15.163,4.091 V 33.249 c 0,-5.782 -4.687,-10.47 -10.47,-10.47 h -9.387 c -5.782,0 -10.47,4.688 -10.47,10.47 v 28.672 c 4.458,-2.598 9.635,-4.091 15.164,-4.091 z"
       style="fill:#c46f5f"
       inkscape:connector-curvature="0" />
    <path
       id="path838"
       d="M 270.653,430.215 V 114.078 c -4.456,2.597 -9.634,4.091 -15.163,4.091 -5.529,0 -10.707,-1.495 -15.163,-4.091 v 316.137 z"
       style="fill:#c46f5f"
       inkscape:connector-curvature="0" />
    <g
       id="g842">
      <path
         id="path840"
         d="m 260.738,33.249 c 0,-3.757 1.985,-7.042 4.958,-8.889 -1.602,-0.996 -3.487,-1.581 -5.512,-1.581 h -9.387 c -5.782,0 -10.47,4.688 -10.47,10.47 v 28.672 c 4.456,-2.598 9.634,-4.091 15.163,-4.091 1.792,0 3.542,0.173 5.248,0.473 z"
         style="fill:#b45f4a"
         inkscape:connector-curvature="0" />
    </g>
    <g
       id="g846">
      <path
         id="path844"
         d="m 255.49,118.17 c -5.529,0 -10.707,-1.494 -15.163,-4.091 v 316.137 h 20.411 v -312.52 c -1.706,0.301 -3.456,0.474 -5.248,0.474 z"
         style="fill:#b45f4a"
         inkscape:connector-curvature="0" />
    </g>
    <path
       id="path848"
       d="m 347.374,266.77 h 151.63 c 7.148,0 12.997,5.848 12.997,12.997 v 5.055 c 0,7.148 -5.849,12.997 -12.997,12.997 h -151.63 c -7.148,0 -12.997,-5.848 -12.997,-12.997 v -5.055 c 0,-7.149 5.849,-12.997 12.997,-12.997 z"
       style="fill:#f4b537"
       inkscape:connector-curvature="0" />
    <path
       id="path850"
       d="M 499.003,277.213 H 347.374 c -4.235,0 -8.002,-2.062 -10.379,-5.222 -1.635,2.174 -2.618,4.862 -2.618,7.775 v 5.055 c 0,7.148 5.848,12.997 12.997,12.997 h 151.629 c 7.148,0 12.997,-5.848 12.997,-12.997 v -5.055 c 0,-2.913 -0.983,-5.602 -2.618,-7.775 -2.377,3.16 -6.143,5.222 -10.379,5.222 z"
       style="fill:#e59d1f"
       inkscape:connector-curvature="0" />
    <path
       id="path852"
       d="m 492.579,297.818 c -4.385,32.7 -32.377,57.924 -66.278,57.924 -33.901,0 -61.892,-25.224 -66.278,-57.924 z"
       style="fill:#feca57"
       inkscape:connector-curvature="0" />
    <path
       id="path854"
       d="M 50.329,297.818 H 19.421 c 4.386,32.7 32.377,57.924 66.278,57.924 5.32,0 10.493,-0.622 15.454,-1.796 -26.65,-6.306 -47.127,-28.559 -50.824,-56.128 z"
       style="fill:#f4b537"
       inkscape:connector-curvature="0" />
    <path
       id="path856"
       d="m 390.931,297.818 h -30.907 c 4.386,32.7 32.377,57.924 66.278,57.924 5.32,0 10.493,-0.622 15.454,-1.796 -26.651,-6.306 -47.127,-28.559 -50.825,-56.128 z"
       style="fill:#f4b537"
       inkscape:connector-curvature="0" />
    <circle
       id="circle858"
       r="20.712"
       cy="126.263"
       cx="88.811996"
       style="fill:#feca57" />
    <circle
       id="circle860"
       r="20.712"
       cy="126.263"
       cx="423.189"
       style="fill:#feca57" />
    <path
       id="path862"
       d="M 313.976,427.125 H 197.005 c -7.148,0 -12.997,5.848 -12.997,12.997 v 21.142 h 142.965 v -21.142 c 0,-7.149 -5.849,-12.997 -12.997,-12.997 z"
       style="fill:#3e4b5a"
       inkscape:connector-curvature="0" />
    <path
       id="path864"
       d="m 184.264,437.568 c -0.167,0.827 -0.257,1.68 -0.257,2.553 v 21.142 h 142.965 v -21.142 c 0,-0.874 -0.09,-1.727 -0.257,-2.553 z"
       style="fill:#303f49"
       inkscape:connector-curvature="0" />
    <path
       id="path866"
       d="m 331.581,458.173 h -151.63 c -7.148,0 -12.997,5.848 -12.997,12.997 v 5.055 c 0,7.148 5.849,12.997 12.997,12.997 h 151.63 c 7.148,0 12.997,-5.848 12.997,-12.997 v -5.055 c 0,-7.149 -5.849,-12.997 -12.997,-12.997 z"
       style="fill:#576574"
       inkscape:connector-curvature="0" />
    <path
       id="path868"
       d="m 331.581,468.616 h -151.63 c -4.235,0 -8.002,-2.062 -10.378,-5.222 -1.635,2.174 -2.618,4.862 -2.618,7.775 v 5.055 c 0,7.148 5.849,12.997 12.997,12.997 h 151.63 c 7.148,0 12.997,-5.848 12.997,-12.997 v -5.055 c 0,-2.913 -0.983,-5.602 -2.618,-7.775 -2.378,3.16 -6.145,5.222 -10.38,5.222 z"
       style="fill:#3e4b5a"
       inkscape:connector-curvature="0" />
    <circle
       id="circle870"
       r="30.17"
       cy="87.999001"
       cx="255.49001"
       style="fill:#feca57" />
    <path
       id="path872"
       d="m 99.007,126.263 c 0,-5.287 1.998,-10.096 5.258,-13.756 -3.794,-4.258 -9.302,-6.956 -15.454,-6.956 -11.439,0 -20.712,9.273 -20.712,20.712 0,11.439 9.273,20.712 20.712,20.712 6.152,0 11.66,-2.697 15.454,-6.956 -3.26,-3.66 -5.258,-8.469 -5.258,-13.756 z"
       style="fill:#f4b537"
       inkscape:connector-curvature="0" />
    <path
       id="path874"
       d="m 433.385,126.263 c 0,-5.287 1.998,-10.096 5.258,-13.756 -3.793,-4.258 -9.302,-6.956 -15.454,-6.956 -11.439,0 -20.712,9.273 -20.712,20.712 0,11.439 9.273,20.712 20.712,20.712 6.152,0 11.66,-2.697 15.454,-6.956 -3.261,-3.66 -5.258,-8.469 -5.258,-13.756 z"
       style="fill:#f4b537"
       inkscape:connector-curvature="0" />
    <path
       id="path876"
       d="m 256.228,87.999 c 0,-11.013 5.904,-20.644 14.716,-25.912 -4.52,-2.702 -9.804,-4.258 -15.454,-4.258 -16.662,0 -30.17,13.508 -30.17,30.17 0,16.662 13.508,30.17 30.17,30.17 5.649,0 10.933,-1.556 15.454,-4.258 -8.813,-5.267 -14.716,-14.899 -14.716,-25.912 z"
       style="fill:#f4b537"
       inkscape:connector-curvature="0" />
    <path
       id="path878"
       d="m 12.997,266.77 h 151.63 c 7.148,0 12.997,5.848 12.997,12.997 v 5.055 c 0,7.148 -5.849,12.997 -12.997,12.997 H 12.997 C 5.848,297.818 0,291.969 0,284.821 v -5.055 C 0,272.618 5.848,266.77 12.997,266.77 Z"
       style="fill:#f4b537"
       inkscape:connector-curvature="0" />
    <path
       id="path880"
       d="M 164.626,277.213 H 12.997 c -4.235,0 -8.002,-2.062 -10.379,-5.222 C 0.983,274.165 0,276.853 0,279.766 v 5.055 c 0,7.148 5.848,12.997 12.997,12.997 h 151.629 c 7.148,0 12.997,-5.848 12.997,-12.997 v -5.055 c 0,-2.913 -0.983,-5.602 -2.618,-7.775 -2.377,3.16 -6.144,5.222 -10.379,5.222 z"
       style="fill:#e59d1f"
       inkscape:connector-curvature="0" />
  </g>
  <g
     id="g4783"
     transform="matrix(0.09351828,0,0,0.09351828,10.376693,74.882936)">
    <circle
       id="circle4707"
       r="256"
       cy="256"
       cx="256"
       style="fill:#87dcff" />
    <path
       id="path4709"
       d="M 285.809,1.783 275.24,34.711 c -2.558,7.969 -8.966,14.108 -17.038,16.321 l -26.512,7.269 c -2.134,0.585 -4.338,0.882 -6.551,0.882 h -39.672 c -4.139,0 -7.638,3.064 -8.185,7.166 l -4.55,34.124 -25.34,1.327 c -4.261,0.223 -7.65,3.655 -7.82,7.918 l -0.877,22.023 c -0.198,4.959 3.992,8.971 8.937,8.559 l 16.882,-1.407 c 4.34,-0.362 8.304,-2.61 10.842,-6.149 l 15.613,-21.776 33.393,-1.193 c 7.142,-0.255 12.188,6.931 9.595,13.591 -5.819,14.943 -5.827,16.223 -5.827,17.537 0,4.565 3.694,8.258 8.258,8.258 4.081,0 7.476,-2.968 8.137,-6.855 0.564,-1.903 3.086,-8.501 6.388,-16.877 1.379,-3.498 6.13,-4.013 8.202,-0.875 l 2.135,3.231 c 3.947,5.975 11.296,8.725 18.196,6.81 l 14.746,-4.092 c 4.11,-1.14 7.429,-4.174 8.933,-8.165 l 2.828,-7.504 c 1.997,-5.299 6.57,-9.205 12.116,-10.35 l 9.53,-1.967 c 6.485,-1.338 13.361,2.583 14.49,9.108 1.153,6.666 -3.531,12.722 -10.038,13.468 l -22.979,0.617 c -4.673,0.126 -8.427,3.891 -8.538,8.565 l -0.052,2.2 c -0.042,1.767 0.933,3.402 2.507,4.205 l 13.214,6.742 c 5.03,2.566 6.669,8.962 3.494,13.632 v 0 c -1.747,2.569 -4.651,4.106 -7.758,4.106 h -69.693 c -1.824,0 -3.632,-0.343 -5.329,-1.012 L 178.435,141.11 c -4.328,-1.705 -9.249,-0.782 -12.665,2.375 l -55.386,51.19 c -4.415,4.081 -6.264,10.239 -4.827,16.077 l 11.261,45.747 c 1.738,7.061 7.89,12.154 15.151,12.545 l 62.398,3.355 c 12.277,0.66 22.212,10.224 23.34,22.466 l 4.733,51.387 c 0.354,3.844 1.367,7.551 3.036,11.033 5.258,10.969 17.517,35.902 24.332,44.521 8.774,11.097 30.391,11.537 37.677,4.903 l 50.734,-41.515 c 4.24,-3.86 7.009,-9.071 7.837,-14.745 L 352,309.677 392.287,265.279 c 3.924,-4.326 2.162,-10.959 -2.832,-13.102 l -0.722,0.484 c -3.056,2.048 -6.581,3.29 -10.226,3.613 -0.645,0.056 -1.29,0.089 -1.935,0.089 -7.468,0 -14.395,-3.79 -18.419,-10.194 L 327.395,197.33 c -2.427,-3.863 -1.266,-8.96 2.589,-11.395 3.887,-2.411 8.96,-1.258 11.395,2.589 l 30.758,48.847 c 1.056,1.694 2.927,2.613 4.927,2.452 0.879,-0.081 1.742,-0.387 2.484,-0.879 l 41.575,-22.784 c 4.333,-2.375 5.481,-8.081 2.402,-11.946 v 0 c -1.712,-2.149 -4.41,-3.264 -7.139,-2.951 l -8.733,1.004 c -2.346,0.27 -4.695,-0.477 -6.455,-2.051 l -26.15,-23.392 c -3.395,-3.04 -3.685,-8.258 -0.645,-11.661 3.032,-3.403 8.25,-3.685 11.661,-0.645 l 23.387,20.919 14.21,-1.637 c 2.944,-0.363 5.863,0.927 7.613,3.331 l 2.734,3.742 13.85,-1.662 c 6.731,-0.808 13.271,2.579 16.496,8.542 l 27.968,51.713 c 2.029,3.752 5.431,6.574 9.494,7.873 l 10.061,3.534 C 511.907,259.247 512,257.635 512,256.002 512,124.705 413.14,16.559 285.809,1.783 Z M 392.75,143.097 c -1.411,0.96 -3.024,1.419 -4.613,1.419 -2.653,0 -5.258,-1.274 -6.847,-3.637 l -17.202,-25.46 c -2.556,-3.774 -1.565,-8.911 2.218,-11.46 3.766,-2.565 8.919,-1.556 11.46,2.218 l 17.202,25.46 c 2.556,3.774 1.564,8.911 -2.218,11.46 z"
       style="fill:#bee86e"
       inkscape:connector-curvature="0" />
    <path
       id="path4711"
       d="m 339.957,428.043 c -141.385,0 -256,-114.615 -256,-256 0,-49.18 13.896,-95.102 37.935,-134.107 C 48.766,83.005 0,163.795 0,256 c 0,141.385 114.615,256 256,256 92.205,0 172.996,-48.766 218.065,-121.893 -39.006,24.04 -84.927,37.936 -134.108,37.936 z"
       style="fill:#00c3ff"
       inkscape:connector-curvature="0" />
    <g
       id="g4717">
      <path
         id="path4713"
         d="m 367.476,391.226 c -1.871,0 -3.758,-0.637 -5.306,-1.935 -3.492,-2.935 -3.944,-8.145 -1.008,-11.637 l 21.677,-25.806 c 2.927,-3.484 8.145,-3.944 11.637,-1.008 3.492,2.936 3.944,8.145 1.008,11.637 l -21.677,25.806 c -1.63,1.943 -3.976,2.943 -6.331,2.943 z"
         style="fill:#bee86e"
         inkscape:connector-curvature="0" />
      <path
         id="path4715"
         d="m 185.573,9.891 -7.347,21.892 c -1.452,4.323 0.879,9.008 5.202,10.46 0.871,0.29 1.758,0.427 2.629,0.427 3.452,0 6.669,-2.177 7.831,-5.629 l 10.696,-31.87 c -6.438,1.311 -12.759,2.934 -19.011,4.72 z"
         style="fill:#bee86e"
         inkscape:connector-curvature="0" />
    </g>
    <path
       id="path4719"
       d="m 42.874,397.811 7.145,-64.914 c 0.571,-5.095 -1.257,-10.166 -4.947,-13.725 L 1.001,277.96 c 3.748,44.083 18.625,84.982 41.873,119.851 z"
       style="fill:#afd755"
       inkscape:connector-curvature="0" />
    <path
       id="path4721"
       d="m 256,0 c -9.261,0 -18.399,0.519 -27.406,1.478 l -0.86,19.377 c -2.161,6.492 1.339,13.508 7.831,15.669 1.298,0.435 2.621,0.637 3.919,0.637 5.185,0 10.024,-3.282 11.75,-8.468 L 260.758,0.12 C 259.169,0.091 257.596,0 256,0 Z"
       style="fill:#bee86e"
       inkscape:connector-curvature="0" />
    <g
       id="g4723" />
    <g
       id="g4725" />
    <g
       id="g4727" />
    <g
       id="g4729" />
    <g
       id="g4731" />
    <g
       id="g4733" />
    <g
       id="g4735" />
    <g
       id="g4737" />
    <g
       id="g4739" />
    <g
       id="g4741" />
    <g
       id="g4743" />
    <g
       id="g4745" />
    <g
       id="g4747" />
    <g
       id="g4749" />
    <g
       id="g4751" />
  </g>
  <g
     id="g4863"
     transform="matrix(0.08410132,0,0,0.08410132,409.60912,154.06067)">
    <path
       id="path4785"
       d="m 500.856,96.089 h -22.912 v 300.519 c 0,0 -30.804,8.972 -103.579,-12.96 -49.068,-14.788 -85.774,3.054 -104.483,16.247 -3.98,2.806 -8.708,7.446 -13.577,7.446 H 256 255.696 c -4.869,0 -9.598,-4.639 -13.577,-7.445 C 223.41,386.703 186.703,368.86 137.635,383.648 64.861,405.58 34.056,396.608 34.056,396.608 V 96.089 H 11.144 C 4.989,96.089 0,101.078 0,107.233 v 313.324 c 0,6.155 4.99,11.144 11.144,11.144 h 200.192 c 5.906,0 11.394,3.305 13.918,8.644 5.443,11.517 17.161,19.486 30.745,19.486 13.584,0 25.302,-7.969 30.745,-19.486 2.524,-5.34 8.012,-8.644 13.918,-8.644 h 200.192 c 6.155,0 11.144,-4.989 11.144,-11.144 V 107.233 C 512,101.078 507.01,96.089 500.856,96.089 Z"
       inkscape:connector-curvature="0"
       style="fill:#f87c68" />
    <g
       id="g4789">
      <path
         id="path4787"
         d="m 57.004,420.556 v -22.165 c -15.72,0.321 -22.946,-1.783 -22.946,-1.783 V 96.089 H 11.144 C 4.989,96.089 0,101.078 0,107.233 v 313.324 c 0,6.155 4.989,11.144 11.144,11.144 h 57.004 c -6.155,0 -11.144,-4.99 -11.144,-11.145 z"
         inkscape:connector-curvature="0"
         style="fill:#ec625e" />
    </g>
    <path
       id="path4791"
       d="M 471.08,72.106 C 456.235,73.297 424.541,72.867 374.364,57.745 301.59,35.812 256,85.658 256,85.658 l -7.94,10.431 v 300.19 l 7.94,10.656 v 0.407 h 0.303 c 4.87,0 9.599,-1.549 13.578,-4.355 18.709,-13.194 55.415,-31.035 104.483,-16.247 72.775,21.932 106.67,12.96 106.67,12.96 V 81.313 c 0,-5.387 -4.584,-9.638 -9.954,-9.207 z"
       inkscape:connector-curvature="0"
       style="fill:#dbedff" />
    <path
       id="path4793"
       d="M 286.225,64.285 C 266.782,73.873 256,85.658 256,85.658 l -7.94,10.431 v 300.19 l 7.94,10.656 v 0.407 h 0.303 c 4.87,0 9.599,-1.549 13.578,-4.355 4.451,-3.139 9.932,-6.538 16.344,-9.701 z"
       inkscape:connector-curvature="0"
       style="fill:#b5dcff" />
    <g
       id="g4797">
      <path
         id="path4795"
         d="m 445.1,132.951 c -0.199,0 -0.399,-0.007 -0.6,-0.023 -21.651,-1.662 -45.998,-6.533 -72.366,-14.48 -26.822,-8.085 -52.776,-6.87 -77.142,3.604 -3.921,1.686 -8.464,-0.128 -10.15,-4.047 -1.685,-3.921 0.127,-8.465 4.047,-10.15 27.799,-11.949 57.306,-13.361 87.703,-4.201 25.302,7.625 48.548,12.291 69.09,13.868 4.255,0.326 7.439,4.04 7.112,8.295 -0.31,4.053 -3.695,7.134 -7.694,7.134 z"
         inkscape:connector-curvature="0"
         style="fill:#8bcaff" />
    </g>
    <g
       id="g4801">
      <path
         id="path4799"
         d="m 445.1,165.788 c -0.199,0 -0.398,-0.007 -0.6,-0.023 -21.646,-1.66 -45.993,-6.532 -72.366,-14.48 -26.822,-8.084 -52.776,-6.871 -77.142,3.604 -3.921,1.685 -8.464,-0.127 -10.15,-4.047 -1.685,-3.921 0.127,-8.465 4.047,-10.15 27.799,-11.949 57.306,-13.362 87.703,-4.201 25.308,7.627 48.553,12.293 69.089,13.868 4.255,0.326 7.439,4.039 7.113,8.294 -0.309,4.054 -3.695,7.135 -7.694,7.135 z"
         inkscape:connector-curvature="0"
         style="fill:#8bcaff" />
    </g>
    <g
       id="g4805">
      <path
         id="path4803"
         d="m 445.1,329.976 c -0.199,0 -0.399,-0.007 -0.6,-0.023 -21.652,-1.662 -45.999,-6.534 -72.366,-14.481 -26.821,-8.082 -52.775,-6.869 -77.142,3.605 -3.921,1.686 -8.464,-0.128 -10.15,-4.047 -1.685,-3.921 0.127,-8.465 4.047,-10.15 27.799,-11.949 57.306,-13.363 87.703,-4.202 25.302,7.626 48.547,12.292 69.09,13.869 4.255,0.326 7.439,4.04 7.112,8.295 -0.31,4.053 -3.695,7.134 -7.694,7.134 z"
         inkscape:connector-curvature="0"
         style="fill:#8bcaff" />
    </g>
    <g
       id="g4809">
      <path
         id="path4807"
         d="m 445.1,362.814 c -0.199,0 -0.399,-0.007 -0.6,-0.023 -21.651,-1.662 -45.998,-6.533 -72.366,-14.48 -26.822,-8.084 -52.776,-6.87 -77.142,3.604 -3.921,1.685 -8.464,-0.128 -10.15,-4.047 -1.685,-3.921 0.127,-8.465 4.047,-10.15 27.799,-11.949 57.306,-13.361 87.703,-4.201 25.302,7.625 48.548,12.291 69.09,13.868 4.255,0.326 7.439,4.04 7.112,8.295 -0.31,4.052 -3.695,7.134 -7.694,7.134 z"
         inkscape:connector-curvature="0"
         style="fill:#8bcaff" />
    </g>
    <g
       id="g4813">
      <path
         id="path4811"
         d="m 445.1,198.626 c -0.199,0 -0.399,-0.007 -0.6,-0.023 -21.652,-1.662 -45.999,-6.534 -72.366,-14.481 -26.821,-8.082 -52.775,-6.869 -77.142,3.605 -3.921,1.685 -8.464,-0.128 -10.15,-4.047 -1.685,-3.921 0.127,-8.465 4.047,-10.15 27.799,-11.949 57.306,-13.363 87.703,-4.202 25.302,7.626 48.547,12.292 69.09,13.869 4.255,0.326 7.439,4.04 7.112,8.295 -0.31,4.053 -3.695,7.134 -7.694,7.134 z"
         inkscape:connector-curvature="0"
         style="fill:#8bcaff" />
    </g>
    <g
       id="g4817">
      <path
         id="path4815"
         d="m 445.1,264.301 c -0.198,0 -0.398,-0.007 -0.599,-0.022 -21.646,-1.661 -45.993,-6.533 -72.366,-14.481 -26.822,-8.084 -52.776,-6.87 -77.142,3.604 -3.921,1.686 -8.464,-0.128 -10.15,-4.047 -1.685,-3.921 0.127,-8.465 4.047,-10.15 27.799,-11.949 57.306,-13.362 87.703,-4.201 25.308,7.627 48.553,12.293 69.089,13.867 4.255,0.327 7.439,4.04 7.113,8.295 -0.31,4.052 -3.696,7.135 -7.695,7.135 z"
         inkscape:connector-curvature="0"
         style="fill:#8bcaff" />
    </g>
    <g
       id="g4821">
      <path
         id="path4819"
         d="m 445.1,231.464 c -0.199,0 -0.399,-0.007 -0.6,-0.023 -21.651,-1.662 -45.998,-6.533 -72.366,-14.48 -26.82,-8.083 -52.774,-6.872 -77.142,3.604 -3.921,1.685 -8.464,-0.128 -10.15,-4.047 -1.685,-3.921 0.127,-8.465 4.047,-10.15 27.799,-11.949 57.306,-13.363 87.703,-4.201 25.302,7.625 48.548,12.291 69.089,13.868 4.255,0.326 7.439,4.04 7.112,8.295 -0.309,4.052 -3.694,7.134 -7.693,7.134 z"
         inkscape:connector-curvature="0"
         style="fill:#8bcaff" />
    </g>
    <g
       id="g4825">
      <path
         id="path4823"
         d="m 445.1,297.138 c -0.198,0 -0.398,-0.007 -0.599,-0.022 -21.65,-1.661 -45.997,-6.533 -72.366,-14.481 -26.821,-8.083 -52.775,-6.87 -77.142,3.605 -3.921,1.686 -8.464,-0.127 -10.15,-4.047 -1.685,-3.921 0.127,-8.465 4.047,-10.15 27.799,-11.949 57.306,-13.364 87.703,-4.202 25.304,7.626 48.549,12.292 69.089,13.867 4.255,0.327 7.439,4.04 7.113,8.295 -0.31,4.053 -3.696,7.135 -7.695,7.135 z"
         inkscape:connector-curvature="0"
         style="fill:#8bcaff" />
    </g>
    <path
       id="path4827"
       d="M 40.92,72.106 C 55.765,73.297 87.459,72.867 137.636,57.745 210.41,35.812 256,85.658 256,85.658 v 321.684 h -0.304 c -4.869,0 -9.598,-1.549 -13.578,-4.355 -18.709,-13.194 -55.415,-31.035 -104.483,-16.248 -72.775,21.932 -106.67,12.96 -106.67,12.96 V 81.313 c 0.001,-5.387 4.585,-9.638 9.955,-9.207 z"
       inkscape:connector-curvature="0"
       style="fill:#dbedff" />
    <path
       id="path4829"
       d="M 64.962,72.061 C 54.5,72.772 46.513,72.554 40.92,72.106 c -5.37,-0.431 -9.954,3.82 -9.954,9.207 v 318.386 c 0,0 11.038,2.909 33.996,1.352 z"
       inkscape:connector-curvature="0"
       style="fill:#b5dcff" />
    <g
       id="g4833">
      <path
         id="path4831"
         d="m 66.9,132.951 c -3.999,0 -7.384,-3.081 -7.695,-7.135 -0.327,-4.255 2.858,-7.969 7.112,-8.295 20.542,-1.577 43.787,-6.243 69.09,-13.868 30.398,-9.162 59.905,-7.748 87.703,4.201 3.92,1.685 5.732,6.229 4.047,10.15 -1.685,3.921 -6.229,5.731 -10.15,4.047 -24.366,-10.475 -50.32,-11.686 -77.142,-3.604 -26.367,7.947 -50.714,12.818 -72.366,14.48 -0.2,0.017 -0.401,0.024 -0.599,0.024 z"
         inkscape:connector-curvature="0"
         style="fill:#8bcaff" />
    </g>
    <g
       id="g4837">
      <path
         id="path4835"
         d="m 66.9,165.788 c -3.999,0 -7.385,-3.082 -7.695,-7.136 -0.326,-4.255 2.858,-7.968 7.113,-8.294 20.537,-1.575 43.782,-6.241 69.089,-13.868 30.398,-9.162 59.905,-7.748 87.703,4.201 3.92,1.685 5.732,6.229 4.047,10.15 -1.685,3.921 -6.229,5.732 -10.15,4.047 -24.366,-10.476 -50.32,-11.685 -77.142,-3.604 -26.373,7.948 -50.72,12.82 -72.366,14.48 -0.201,0.017 -0.401,0.024 -0.599,0.024 z"
         inkscape:connector-curvature="0"
         style="fill:#8bcaff" />
    </g>
    <g
       id="g4841">
      <path
         id="path4839"
         d="m 66.9,329.976 c -3.999,0 -7.384,-3.082 -7.695,-7.135 -0.327,-4.255 2.858,-7.969 7.112,-8.295 20.543,-1.577 43.788,-6.243 69.089,-13.869 30.397,-9.16 59.905,-7.747 87.703,4.202 3.92,1.685 5.732,6.229 4.047,10.15 -1.685,3.92 -6.229,5.732 -10.15,4.047 -24.366,-10.474 -50.321,-11.688 -77.142,-3.605 -26.366,7.947 -50.713,12.819 -72.366,14.481 -0.199,0.017 -0.4,0.024 -0.598,0.024 z"
         inkscape:connector-curvature="0"
         style="fill:#8bcaff" />
    </g>
    <g
       id="g4845">
      <path
         id="path4843"
         d="m 66.9,362.814 c -3.999,0 -7.384,-3.082 -7.695,-7.135 -0.327,-4.255 2.858,-7.969 7.112,-8.295 20.542,-1.577 43.787,-6.243 69.09,-13.868 30.398,-9.162 59.905,-7.748 87.703,4.201 3.92,1.685 5.732,6.229 4.047,10.15 -1.685,3.921 -6.229,5.731 -10.15,4.047 -24.366,-10.476 -50.32,-11.685 -77.142,-3.604 -26.367,7.947 -50.714,12.818 -72.366,14.48 -0.2,0.016 -0.401,0.024 -0.599,0.024 z"
         inkscape:connector-curvature="0"
         style="fill:#8bcaff" />
    </g>
    <g
       id="g4849">
      <path
         id="path4847"
         d="m 66.9,198.626 c -3.999,0 -7.384,-3.082 -7.695,-7.135 -0.327,-4.255 2.858,-7.969 7.112,-8.295 20.543,-1.577 43.788,-6.243 69.089,-13.869 30.397,-9.16 59.905,-7.747 87.703,4.202 3.92,1.685 5.732,6.229 4.047,10.15 -1.685,3.92 -6.229,5.732 -10.15,4.047 -24.366,-10.474 -50.321,-11.688 -77.142,-3.605 -26.366,7.947 -50.713,12.819 -72.366,14.481 -0.199,0.017 -0.4,0.024 -0.598,0.024 z"
         inkscape:connector-curvature="0"
         style="fill:#8bcaff" />
    </g>
    <g
       id="g4853">
      <path
         id="path4851"
         d="m 66.9,264.301 c -3.999,0 -7.385,-3.082 -7.695,-7.136 -0.326,-4.255 2.858,-7.968 7.113,-8.295 20.537,-1.574 43.782,-6.24 69.089,-13.867 30.398,-9.163 59.905,-7.748 87.703,4.201 3.92,1.685 5.732,6.229 4.047,10.15 -1.685,3.921 -6.229,5.733 -10.15,4.047 -24.366,-10.476 -50.32,-11.685 -77.142,-3.604 -26.373,7.948 -50.72,12.82 -72.366,14.481 -0.201,0.016 -0.401,0.023 -0.599,0.023 z"
         inkscape:connector-curvature="0"
         style="fill:#8bcaff" />
    </g>
    <g
       id="g4857">
      <path
         id="path4855"
         d="m 66.9,231.464 c -3.999,0 -7.384,-3.081 -7.695,-7.135 -0.327,-4.255 2.858,-7.969 7.112,-8.295 20.542,-1.577 43.787,-6.243 69.09,-13.868 30.397,-9.162 59.905,-7.749 87.703,4.201 3.92,1.685 5.732,6.229 4.047,10.15 -1.685,3.921 -6.229,5.732 -10.15,4.047 -24.367,-10.476 -50.321,-11.686 -77.141,-3.604 -26.367,7.947 -50.715,12.818 -72.366,14.48 -0.201,0.017 -0.402,0.024 -0.6,0.024 z"
         inkscape:connector-curvature="0"
         style="fill:#8bcaff" />
    </g>
    <g
       id="g4861">
      <path
         id="path4859"
         d="m 66.9,297.138 c -3.999,0 -7.385,-3.081 -7.695,-7.136 -0.326,-4.255 2.858,-7.968 7.113,-8.295 20.54,-1.575 43.785,-6.241 69.089,-13.867 30.397,-9.16 59.905,-7.747 87.703,4.202 3.92,1.685 5.732,6.229 4.047,10.15 -1.685,3.921 -6.229,5.733 -10.15,4.047 -24.366,-10.474 -50.321,-11.687 -77.142,-3.605 -26.369,7.948 -50.716,12.82 -72.366,14.481 -0.201,0.016 -0.401,0.023 -0.599,0.023 z"
         inkscape:connector-curvature="0"
         style="fill:#8bcaff" />
    </g>
  </g>
  <g
     id="g4991"
     transform="matrix(0.08373657,0,0,0.08373657,240.53679,14.162941)">
    <path
       id="path4912"
       d="m 496.7,185.099 c -14.099,14.101 -36.299,18.9 -54.899,12.301 l -94.6,95.6 -82.2,7.8 c -9,-9 -14.101,-20.099 -16.8,-29.099 0,-0.3 0,-0.3 0,-0.601 -5.7,-18.6 -0.901,-30.601 -15,-44.399 L 200.8,184.701 314.6,70.199 C 308.001,51.3 312.5,30 326.901,15.3 c 20.7,-20.4 54,-20.4 74.399,0 L 449.001,62.999 496.7,110.7 c 20.4,20.7 20.4,53.999 0,74.399 z"
       style="fill:#cae8f9"
       inkscape:connector-curvature="0" />
    <path
       id="path4914"
       d="m 496.7,185.099 c -14.099,14.101 -36.299,18.9 -54.899,12.301 l -94.6,95.6 -82.2,7.8 c -9,-9 -14.101,-20.099 -16.8,-29.099 0,-0.3 0,-0.3 0,-0.601 L 449.001,62.998 496.7,110.7 c 20.4,20.7 20.4,53.999 0,74.399 z"
       style="fill:#b7e0f6"
       inkscape:connector-curvature="0" />
    <path
       id="path4916"
       d="M 347.201,293 156.699,483.501 C 138.1,502.402 112.901,512 88.601,512 68.502,512 49.001,505.701 33.4,492.801 13.601,476.6 1.6,452.9 0.1,427.401 -1.099,401.9 8.501,377.3 26.5,359.3 l 146.1,-146.1 28.2,-28.5 6.899,0.601 c 2.701,0 28.5,2.1 46.8,20.099 12.9,12.9 17.401,29.399 19.501,39 0.601,4.2 0.899,6.901 0.899,7.8 0,0.3 1.201,17.1 11.4,27.599 10.201,9.901 27.301,11.4 27.301,11.4 z"
       style="fill:#19dec1"
       inkscape:connector-curvature="0" />
    <path
       id="path4918"
       d="M 347.201,293 156.699,483.501 C 138.1,502.402 112.901,512 88.601,512 68.502,512 49.001,505.701 33.4,492.801 L 274,244.401 c 0.601,4.2 0.899,6.901 0.899,7.8 0,0.3 1.201,17.1 11.4,27.599 10.201,9.901 27.301,11.4 27.301,11.4 z"
       style="fill:#17ceb4"
       inkscape:connector-curvature="0" />
    <g
       id="g4926">
      <circle
         id="circle4920"
         r="15"
         cy="295.62"
         cx="196.17"
         style="fill:#cae8f9" />
      <circle
         id="circle4922"
         r="15"
         cy="389.69"
         cx="102.1"
         style="fill:#cae8f9" />
      <path
         id="path4924"
         d="m 185.5,369.8 c -5.7,6 -15.3,6 -21.301,0 -2.098,-2.1 -3.6,-5.099 -3.6,-8.099 -1.199,-4.501 0.3,-9.6 3.6,-12.9 3.602,-3.602 8.101,-4.801 12.601,-4.2 3.3,0.3 6.299,1.8 8.699,4.2 6.001,5.699 6.001,15.299 0.001,20.999 z"
         style="fill:#cae8f9"
         inkscape:connector-curvature="0" />
    </g>
    <path
       id="path4928"
       d="m 185.5,369.8 c -5.7,6 -15.3,6 -21.301,0 -2.098,-2.1 -3.6,-5.099 -3.6,-8.099 l 16.201,-17.1 c 3.3,0.3 6.299,1.8 8.699,4.2 6.001,5.699 6.001,15.299 0.001,20.999 z"
       style="fill:#b7e0f6"
       inkscape:connector-curvature="0" />
    <g
       id="g4930" />
    <g
       id="g4932" />
    <g
       id="g4934" />
    <g
       id="g4936" />
    <g
       id="g4938" />
    <g
       id="g4940" />
    <g
       id="g4942" />
    <g
       id="g4944" />
    <g
       id="g4946" />
    <g
       id="g4948" />
    <g
       id="g4950" />
    <g
       id="g4952" />
    <g
       id="g4954" />
    <g
       id="g4956" />
    <g
       id="g4958" />
  </g>
  <circle
     style="fill:none;fill-opacity:1;stroke:#03a1da;stroke-width:4.35763597;stroke-miterlimit:4;stroke-dasharray:none;stroke-opacity:1"
     id="path5023"
     cx="70.704453"
     cy="338.25818"
     r="33.419697" />
  <circle
     style="fill:none;fill-opacity:1;stroke:#03a1da;stroke-width:4.35763597;stroke-miterlimit:4;stroke-dasharray:none;stroke-opacity:1"
     id="path5023-3"
     cx="430.83197"
     cy="175.53914"
     r="33.419697" />
  <circle
     style="fill:none;fill-opacity:1;stroke:#03a1da;stroke-width:4.35763597;stroke-miterlimit:4;stroke-dasharray:none;stroke-opacity:1"
     id="path5023-6"
     cx="35.598515"
     cy="99.142677"
     r="33.419697" />
  <circle
     style="fill:none;fill-opacity:1;stroke:#03a1da;stroke-width:4.35763597;stroke-miterlimit:4;stroke-dasharray:none;stroke-opacity:1"
     id="path5023-6-7"
     cx="261.88098"
     cy="35.598515"
     r="33.419697" />
  <rect
     style="fill:#03a1da;fill-opacity:1;stroke:#03a1da;stroke-width:1.64543891;stroke-miterlimit:4;stroke-dasharray:none;stroke-opacity:1"
     id="rect5074"
     width="5.9502549"
     height="176.16936"
     x="20.595798"
     y="129.61835"
     transform="matrix(0.99565176,0.09315354,0.15362699,0.98812891,0,0)" />
  <rect
     style="fill:#03a1da;fill-opacity:1;stroke:#03a1da;stroke-width:1.74378109;stroke-miterlimit:4;stroke-dasharray:none;stroke-opacity:1"
     id="rect5074-5-3"
     width="5.44453"
     height="216.23495"
     x="-326.13046"
     y="100.61841"
     transform="matrix(-0.00964039,-0.99995353,0.99583604,0.09116235,0,0)" />
  <circle
     style="fill:none;fill-opacity:1;stroke:#03a1da;stroke-width:4.35763597;stroke-miterlimit:4;stroke-dasharray:none;stroke-opacity:1"
     id="path5023-3-3"
     cx="352.96442"
     cy="354.06009"
     r="33.419697" />
  <g
     id="flat"
     transform="matrix(0.08663231,0,0,0.08663231,46.8819,315.6733)">
    <path
       id="path962"
       d="m 108.624,151.261 a 40.014,40.014 0 0 0 -68.613,26.776 32,32 0 1 0 45.176,40.843 40.045,40.045 0 0 0 17.867,-6.973 32,32 0 1 0 5.57,-60.646 z"
       inkscape:connector-curvature="0"
       style="fill:#02a437" />
    <path
       id="path964"
       d="m 94.546,224.481 a 8,8 0 0 1 -7.455,-5.093 L 72.549,182.124 a 8.0002296,8.0002296 0 0 1 14.906,-5.816 L 102,213.571 a 8,8 0 0 1 -7.451,10.91 z"
       inkscape:connector-curvature="0"
       style="fill:#027e2a" />
    <path
       id="path966"
       d="m 109.458,218.663 c -0.245,0 -0.492,-0.012 -0.741,-0.034 a 8,8 0 0 1 -7.234,-8.7 62.044,62.044 0 0 1 15.665,-35.717 8,8 0 1 1 11.868,10.73 45.954,45.954 0 0 0 -11.6,26.45 8,8 0 0 1 -7.958,7.271 z"
       inkscape:connector-curvature="0"
       style="fill:#027e2a" />
    <path
       id="path968"
       d="M 79.636,230.3 A 7.971,7.971 0 0 1 74.273,228.234 45.942,45.942 0 0 0 47.824,216.634 8.000557,8.000557 0 1 1 49.288,200.7 62.063,62.063 0 0 1 85,216.361 8,8 0 0 1 79.636,230.3 Z"
       inkscape:connector-curvature="0"
       style="fill:#027e2a" />
    <path
       id="path970"
       d="M 188.339,368.8 128.718,392.07 71.255,276.882 a 43.835,43.835 0 0 1 23.289,-60.4 43.834,43.834 0 0 1 58.046,28.662 z"
       inkscape:connector-curvature="0"
       style="fill:#fd9226" />
    <path
       id="path972"
       d="m 272,24 h 32 v 224 h -32 z"
       inkscape:connector-curvature="0"
       style="fill:#026a23" />
    <path
       id="path974"
       d="m 287.11,185.94 a 69.015,69.015 0 0 0 -3.78,-14.07 L 248,80 l -24,8 34.27,89.1 a 85.942,85.942 0 0 1 5.73,30.87 v 28.39 z"
       inkscape:connector-curvature="0"
       style="fill:#027226" />
    <path
       id="path976"
       d="m 322.31,325.75 a 30.42,30.42 0 0 1 0,36.5 l -0.11,0.15 A 34,34 0 0 1 295,376 h -14 a 34,34 0 0 1 -27.2,-13.6 l -0.11,-0.15 a 30.42,30.42 0 0 1 0,-36.5 L 264,312 V 236.36 L 287.11,185.94 288,184 328,80 l 24,8 -34.27,89.1 A 85.942,85.942 0 0 0 312,207.97 V 312 Z"
       inkscape:connector-curvature="0"
       style="fill:#027e2a" />
    <path
       id="path978"
       d="m 322.31,362.25 -0.11,0.15 a 33.871,33.871 0 0 1 -12.88,10.43 l -47.83,-2.99 a 33.688,33.688 0 0 1 -7.69,-7.44 l -0.11,-0.15 a 30.42,30.42 0 0 1 0,-36.5 L 254.4,324.8 264,320 312,207.97 V 312 l 10.31,13.75 a 30.42,30.42 0 0 1 0,36.5 z"
       inkscape:connector-curvature="0"
       style="fill:#027e2a" />
    <g
       id="g988"
       style="fill:#e78244">
      <path
         id="path980"
         d="m 80.55,298.644 a 8,8 0 0 1 -2.91,-15.456 l 14.905,-5.816 a 8.0004113,8.0004113 0 0 1 5.817,14.906 l -14.9,5.817 a 8,8 0 0 1 -2.912,0.549 z"
         inkscape:connector-curvature="0" />
      <path
         id="path982"
         d="m 125.266,281.193 a 8,8 0 0 1 -2.911,-15.455 l 14.906,-5.816 a 8.0002296,8.0002296 0 1 1 5.816,14.906 l -14.9,5.817 a 8,8 0 0 1 -2.911,0.548 z"
         inkscape:connector-curvature="0" />
      <path
         id="path984"
         d="m 93.411,327.728 a 8,8 0 0 1 -2.91,-15.456 l 21.13,-8 a 8.0008771,8.0008771 0 0 1 5.817,14.907 l -21.131,8 a 8,8 0 0 1 -2.906,0.549 z"
         inkscape:connector-curvature="0" />
      <path
         id="path986"
         d="m 144.352,308.1 a 8,8 0 0 1 -2.91,-15.455 l 7.453,-2.909 a 8.0006954,8.0006954 0 0 1 5.816,14.907 l -7.453,2.908 a 8,8 0 0 1 -2.906,0.549 z"
         inkscape:connector-curvature="0" />
    </g>
    <path
       id="path990"
       d="m 189,200 h 18.987 A 34,34 0 0 1 238.4,218.8 L 245,232 h -18.987 a 34,34 0 0 1 -30.41,-18.795 z"
       inkscape:connector-curvature="0"
       style="fill:#02a437" />
    <path
       id="path992"
       d="m 227.633,278 a 8,8 0 0 1 -8,-8 56.945,56.945 0 0 1 45.654,-55.689 l 0.778,-0.156 a 8.0001656,8.0001656 0 0 1 3.136,15.69 L 268.424,230 a 40.9,40.9 0 0 0 -32.791,40 8,8 0 0 1 -8,8 z"
       inkscape:connector-curvature="0"
       style="fill:#8f6934" />
    <path
       id="path994"
       d="m 322.31,362.25 -0.11,0.15 a 33.871,33.871 0 0 1 -12.88,10.43 l -47.83,-2.99 a 33.688,33.688 0 0 1 -7.69,-7.44 l -0.11,-0.15 a 30.42,30.42 0 0 1 0,-36.5 L 254.4,324.8 264,320 312,207.97 V 312 l 10.31,13.75 a 30.42,30.42 0 0 1 0,36.5 z"
       inkscape:connector-curvature="0"
       style="fill:#cbcbcb" />
    <path
       id="path996"
       d="m 198.988,254 a 23.627,23.627 0 0 1 19.659,10.521 10.8,10.8 0 0 0 17.972,0 23.626,23.626 0 0 1 19.658,-10.521 23.626,23.626 0 0 1 18.449,8.867 l 1.879,2.348 a 52,52 0 0 1 3.491,60.044 l -15.61,24.976 a 16.521,16.521 0 0 1 -14.01,7.765 16.521,16.521 0 0 1 -11.682,-4.839 15.784,15.784 0 0 0 -22.322,0 16.524,16.524 0 0 1 -11.682,4.839 16.519,16.519 0 0 1 -14.01,-7.765 l -15.61,-24.976 a 52,52 0 0 1 3.491,-60.044 l 1.878,-2.348 A 23.629,23.629 0 0 1 198.988,254 Z"
       inkscape:connector-curvature="0"
       style="fill:#e82f3e" />
    <path
       id="path998"
       d="M 204.6,320 A 7.978,7.978 0 0 1 198.943,317.657 23.667,23.667 0 0 1 194.5,290.3 l 2.941,-5.881 a 8,8 0 0 1 14.31,7.156 l -2.94,5.881 a 7.686,7.686 0 0 0 1.442,8.884 A 8,8 0 0 1 204.6,320 Z"
       inkscape:connector-curvature="0"
       style="fill:#ff6268" />
    <path
       id="path1000"
       d="m 24,392 h 464 v 48 H 24 Z"
       inkscape:connector-curvature="0"
       style="fill:#ea9d2d" />
    <path
       id="path1002"
       d="M 72,424 H 56 a 8,8 0 0 1 0,-16 h 16 a 8,8 0 0 1 0,16 z"
       inkscape:connector-curvature="0"
       style="fill:#c38325" />
    <path
       id="path1004"
       d="m 456,424 h -16 a 8,8 0 0 1 0,-16 h 16 a 8,8 0 0 1 0,16 z"
       inkscape:connector-curvature="0"
       style="fill:#c38325" />
    <path
       id="path1006"
       d="m 24,440 h 464 v 48 H 24 Z"
       inkscape:connector-curvature="0"
       style="fill:#fbb540" />
    <g
       id="g1016"
       style="fill:#c38325">
      <path
         id="path1008"
         d="M 72,472 H 56 a 8,8 0 0 1 0,-16 h 16 a 8,8 0 0 1 0,16 z"
         inkscape:connector-curvature="0" />
      <path
         id="path1010"
         d="m 264,424 h -16 a 8,8 0 0 1 0,-16 h 16 a 8,8 0 0 1 0,16 z"
         inkscape:connector-curvature="0" />
      <path
         id="path1012"
         d="m 264,472 h -16 a 8,8 0 0 1 0,-16 h 16 a 8,8 0 0 1 0,16 z"
         inkscape:connector-curvature="0" />
      <path
         id="path1014"
         d="m 456,472 h -16 a 8,8 0 0 1 0,-16 h 16 a 8,8 0 0 1 0,16 z"
         inkscape:connector-curvature="0" />
    </g>
    <path
       id="path1018"
       d="m 352,296 7.029,7.029 A 57.94,57.94 0 0 1 376,344 h 24 v -8 A 57.94,57.94 0 0 0 383.029,295.029 L 376,288 Z"
       inkscape:connector-curvature="0"
       style="fill:#027e2a" />
    <path
       id="path1020"
       d="m 448,296 -7.029,7.029 A 57.94,57.94 0 0 0 424,344 h -24 v -8 a 57.94,57.94 0 0 1 16.971,-40.971 L 424,288 Z"
       inkscape:connector-curvature="0"
       style="fill:#027e2a" />
    <path
       id="path1022"
       d="M 488,234 A 29.94,29.94 0 0 0 477.185,210.938 29.987,29.987 0 0 0 450,174.073 a 59.985,59.985 0 0 0 -103.99,0 29.987,29.987 0 0 0 -27.19,36.865 A 29.986,29.986 0 0 0 314.793,253 40,40 0 0 0 374.549,303.567 49.738,49.738 0 0 0 398,294 49.738,49.738 0 0 0 421.451,303.569 40,40 0 0 0 481.207,253 29.862,29.862 0 0 0 488,234 Z"
       inkscape:connector-curvature="0"
       style="fill:#02a437" />
    <path
       id="path1024"
       d="m 420.634,200 a 8,8 0 0 1 -7.543,-5.336 16.009,16.009 0 0 0 -30.182,0 8.0002753,8.0002753 0 0 1 -15.086,-5.332 32.01,32.01 0 0 1 60.354,0 8,8 0 0 1 -7.543,10.668 z"
       inkscape:connector-curvature="0"
       style="fill:#027e2a" />
    <path
       id="path1026"
       d="m 358,256 a 24,24 0 0 1 0,-48 8,8 0 0 1 0,16 8,8 0 0 0 0,16 8,8 0 0 1 0,16 z"
       inkscape:connector-curvature="0"
       style="fill:#027e2a" />
    <path
       id="path1028"
       d="m 24,344 h 464 v 48 H 24 Z"
       inkscape:connector-curvature="0"
       style="fill:#fbb540" />
    <path
       id="path1030"
       d="M 72,376 H 56 a 8,8 0 0 1 0,-16 h 16 a 8,8 0 0 1 0,16 z"
       inkscape:connector-curvature="0"
       style="fill:#c38325" />
    <path
       id="path1032"
       d="m 456,376 h -16 a 8,8 0 0 1 0,-16 h 16 a 8,8 0 0 1 0,16 z"
       inkscape:connector-curvature="0"
       style="fill:#c38325" />
    <path
       id="path1034"
       d="m 264,376 h -16 a 8,8 0 0 1 0,-16 h 16 a 8,8 0 0 1 0,16 z"
       inkscape:connector-curvature="0"
       style="fill:#c38325" />
  </g>
  <rect
     style="fill:#03a1da;fill-opacity:1;stroke:#03a1da;stroke-width:1.28569829;stroke-miterlimit:4;stroke-dasharray:none;stroke-opacity:1"
     id="rect5074-5-3-6"
     width="5.0528312"
     height="126.66181"
     x="-471.85925"
     y="-125.47102"
     transform="matrix(-0.89420219,-0.44766332,0.40639654,-0.9136968,0,0)" />
  <rect
     style="fill:#03a1da;fill-opacity:1;stroke:#03a1da;stroke-width:1.52301502;stroke-miterlimit:4;stroke-dasharray:none;stroke-opacity:1"
     id="rect5074-7"
     width="5.2949209"
     height="169.60997"
     x="97.480942"
     y="-230.39719"
     transform="matrix(0.05292344,0.99859857,-0.96295379,0.26966647,0,0)" />
  <rect
     style="fill:#03a1da;fill-opacity:1;stroke:#03a1da;stroke-width:1.5131979;stroke-miterlimit:4;stroke-dasharray:none;stroke-opacity:1"
     id="rect5074-7-5"
     width="5.4652052"
     height="162.21361"
     x="-170.18791"
     y="-380.25986"
     transform="matrix(-0.7827639,0.62231879,-0.75653937,-0.65394815,0,0)" />
</svg>
