<svg xmlns="http://www.w3.org/2000/svg" width="466.43" height="389.659"><text style="line-height:1.25;-inkscape-font-specification:'TheSans B6 SemiBold, '" x="104.121" y="236.417" transform="scale(.99792 1.00209)" font-weight="400" font-size="176.202" font-family="TheSans B6 SemiBold" letter-spacing="0" word-spacing="0" fill="#03a1da" stroke-width="4.405"><tspan x="104.121" y="236.417" style="-inkscape-font-specification:'TheSans B6 SemiBold, '">IDS</tspan></text><g transform="translate(236.3 10.36) scale(.0979)"><path d="M151.977 297.818c-4.385 32.7-32.377 57.924-66.278 57.924s-61.892-25.224-66.278-57.924z" fill="#feca57"/><path d="M148.13 284.974L90.424 128.943a7.726 7.726 0 014.567-9.927 7.725 7.725 0 019.927 4.567l57.706 156.031a7.726 7.726 0 11-14.494 5.36zm-128.564 4.567a7.727 7.727 0 01-4.567-9.927l57.706-156.031a7.724 7.724 0 019.927-4.567 7.727 7.727 0 014.567 9.927L29.493 284.974a7.727 7.727 0 01-9.927 4.567zm334.35-.01a7.727 7.727 0 01-4.53-9.944l57.706-154.278a7.726 7.726 0 1114.474 5.414L363.86 285.001a7.728 7.728 0 01-9.944 4.53zm128.601-4.53l-57.706-154.278a7.727 7.727 0 1114.474-5.414l57.706 154.278a7.727 7.727 0 11-14.474 5.414z" fill="#ccd2db"/><path d="M101.321 134.48a7.728 7.728 0 01-.713-15.421c25.676-2.411 32.516-5.334 134.295-33.25a7.728 7.728 0 014.088 14.904c-102.314 28.063-109.932 31.197-136.938 33.733-.246.023-.49.034-.732.034zm311.253.54c-.242 0-.485-.011-.731-.034-28.034-2.633-35.536-5.772-142.381-35.077a7.728 7.728 0 014.088-14.904c106.996 29.346 113.421 32.123 139.738 34.594a7.727 7.727 0 01-.714 15.421z" fill="#3e4b5a"/><path d="M255.49 57.83a30.026 30.026 0 0115.163 4.091V33.249c0-5.782-4.687-10.47-10.47-10.47h-9.387c-5.782 0-10.47 4.688-10.47 10.47v28.672a30.015 30.015 0 0115.164-4.091zm15.163 372.385V114.078a30.016 30.016 0 01-15.163 4.091 30.026 30.026 0 01-15.163-4.091v316.137z" fill="#c46f5f"/><path d="M260.738 33.249c0-3.757 1.985-7.042 4.958-8.889a10.404 10.404 0 00-5.512-1.581h-9.387c-5.782 0-10.47 4.688-10.47 10.47v28.672a30.006 30.006 0 0115.163-4.091c1.792 0 3.542.173 5.248.473zm-5.248 84.921a30.016 30.016 0 01-15.163-4.091v316.137h20.411v-312.52a30.153 30.153 0 01-5.248.474z" fill="#b45f4a"/><path d="M347.374 266.77h151.63c7.148 0 12.997 5.848 12.997 12.997v5.055c0 7.148-5.849 12.997-12.997 12.997h-151.63c-7.148 0-12.997-5.848-12.997-12.997v-5.055c0-7.149 5.849-12.997 12.997-12.997z" fill="#f4b537"/><path d="M499.003 277.213H347.374c-4.235 0-8.002-2.062-10.379-5.222-1.635 2.174-2.618 4.862-2.618 7.775v5.055c0 7.148 5.848 12.997 12.997 12.997h151.629c7.148 0 12.997-5.848 12.997-12.997v-5.055c0-2.913-.983-5.602-2.618-7.775-2.377 3.16-6.143 5.222-10.379 5.222z" fill="#e59d1f"/><path d="M492.579 297.818c-4.385 32.7-32.377 57.924-66.278 57.924s-61.892-25.224-66.278-57.924z" fill="#feca57"/><path d="M50.329 297.818H19.421c4.386 32.7 32.377 57.924 66.278 57.924 5.32 0 10.493-.622 15.454-1.796-26.65-6.306-47.127-28.559-50.824-56.128zm340.602 0h-30.907c4.386 32.7 32.377 57.924 66.278 57.924 5.32 0 10.493-.622 15.454-1.796-26.651-6.306-47.127-28.559-50.825-56.128z" fill="#f4b537"/><circle r="20.712" cy="126.263" cx="88.812" fill="#feca57"/><circle r="20.712" cy="126.263" cx="423.189" fill="#feca57"/><path d="M313.976 427.125H197.005c-7.148 0-12.997 5.848-12.997 12.997v21.142h142.965v-21.142c0-7.149-5.849-12.997-12.997-12.997z" fill="#3e4b5a"/><path d="M184.264 437.568c-.167.827-.257 1.68-.257 2.553v21.142h142.965v-21.142c0-.874-.09-1.727-.257-2.553z" fill="#303f49"/><path d="M331.581 458.173h-151.63c-7.148 0-12.997 5.848-12.997 12.997v5.055c0 7.148 5.849 12.997 12.997 12.997h151.63c7.148 0 12.997-5.848 12.997-12.997v-5.055c0-7.149-5.849-12.997-12.997-12.997z" fill="#576574"/><path d="M331.581 468.616h-151.63c-4.235 0-8.002-2.062-10.378-5.222-1.635 2.174-2.618 4.862-2.618 7.775v5.055c0 7.148 5.849 12.997 12.997 12.997h151.63c7.148 0 12.997-5.848 12.997-12.997v-5.055c0-2.913-.983-5.602-2.618-7.775-2.378 3.16-6.145 5.222-10.38 5.222z" fill="#3e4b5a"/><circle r="30.17" cy="87.999" cx="255.49" fill="#feca57"/><path d="M99.007 126.263c0-5.287 1.998-10.096 5.258-13.756-3.794-4.258-9.302-6.956-15.454-6.956-11.439 0-20.712 9.273-20.712 20.712s9.273 20.712 20.712 20.712c6.152 0 11.66-2.697 15.454-6.956-3.26-3.66-5.258-8.469-5.258-13.756zm334.378 0c0-5.287 1.998-10.096 5.258-13.756-3.793-4.258-9.302-6.956-15.454-6.956-11.439 0-20.712 9.273-20.712 20.712s9.273 20.712 20.712 20.712c6.152 0 11.66-2.697 15.454-6.956-3.261-3.66-5.258-8.469-5.258-13.756zM256.228 87.999c0-11.013 5.904-20.644 14.716-25.912a30.02 30.02 0 00-15.454-4.258c-16.662 0-30.17 13.508-30.17 30.17 0 16.662 13.508 30.17 30.17 30.17a30.025 30.025 0 0015.454-4.258c-8.813-5.267-14.716-14.899-14.716-25.912zM12.997 266.77h151.63c7.148 0 12.997 5.848 12.997 12.997v5.055c0 7.148-5.849 12.997-12.997 12.997H12.997C5.848 297.818 0 291.969 0 284.821v-5.055c0-7.148 5.848-12.996 12.997-12.996z" fill="#f4b537"/><path d="M164.626 277.213H12.997c-4.235 0-8.002-2.062-10.379-5.222C.983 274.165 0 276.853 0 279.766v5.055c0 7.148 5.848 12.997 12.997 12.997h151.629c7.148 0 12.997-5.848 12.997-12.997v-5.055c0-2.913-.983-5.602-2.618-7.775-2.377 3.16-6.144 5.222-10.379 5.222z" fill="#e59d1f"/></g><g transform="translate(46.972 314.526) scale(.09352)"><circle r="256" cy="256" cx="256" fill="#87dcff"/><path d="M285.809 1.783L275.24 34.711a24.774 24.774 0 01-17.038 16.321l-26.512 7.269a24.783 24.783 0 01-6.551.882h-39.672a8.257 8.257 0 00-8.185 7.166l-4.55 34.124-25.34 1.327a8.258 8.258 0 00-7.82 7.918l-.877 22.023c-.198 4.959 3.992 8.971 8.937 8.559l16.882-1.407a14.863 14.863 0 0010.842-6.149l15.613-21.776 33.393-1.193c7.142-.255 12.188 6.931 9.595 13.591-5.819 14.943-5.827 16.223-5.827 17.537a8.253 8.253 0 008.258 8.258 8.26 8.26 0 008.137-6.855c.564-1.903 3.086-8.501 6.388-16.877 1.379-3.498 6.13-4.013 8.202-.875l2.135 3.231a16.515 16.515 0 0018.196 6.81l14.746-4.092a13.364 13.364 0 008.933-8.165l2.828-7.504a16.516 16.516 0 0112.116-10.35l9.53-1.967c6.485-1.338 13.361 2.583 14.49 9.108 1.153 6.666-3.531 12.722-10.038 13.468l-22.979.617a8.776 8.776 0 00-8.538 8.565l-.052 2.2a4.598 4.598 0 002.507 4.205l13.214 6.742c5.03 2.566 6.669 8.962 3.494 13.632a9.38 9.38 0 01-7.758 4.106h-69.693a14.53 14.53 0 01-5.329-1.012l-58.482-23.038a12.116 12.116 0 00-12.665 2.375l-55.386 51.19a16.518 16.518 0 00-4.827 16.077l11.261 45.747a16.517 16.517 0 0015.151 12.545l62.398 3.355c12.277.66 22.212 10.224 23.34 22.466l4.733 51.387a32.258 32.258 0 003.036 11.033c5.258 10.969 17.517 35.902 24.332 44.521 8.774 11.097 30.391 11.537 37.677 4.903l50.734-41.515a24.777 24.777 0 007.837-14.745L352 309.677l40.287-44.398c3.924-4.326 2.162-10.959-2.832-13.102l-.722.484a21.853 21.853 0 01-10.226 3.613c-.645.056-1.29.089-1.935.089-7.468 0-14.395-3.79-18.419-10.194l-30.758-48.839a8.273 8.273 0 012.589-11.395c3.887-2.411 8.96-1.258 11.395 2.589l30.758 48.847c1.056 1.694 2.927 2.613 4.927 2.452a5.424 5.424 0 002.484-.879l41.575-22.784c4.333-2.375 5.481-8.081 2.402-11.946a7.967 7.967 0 00-7.139-2.951l-8.733 1.004a8.266 8.266 0 01-6.455-2.051l-26.15-23.392c-3.395-3.04-3.685-8.258-.645-11.661 3.032-3.403 8.25-3.685 11.661-.645l23.387 20.919 14.21-1.637c2.944-.363 5.863.927 7.613 3.331l2.734 3.742 13.85-1.662a16.516 16.516 0 0116.496 8.542l27.968 51.713a16.51 16.51 0 009.494 7.873l10.061 3.534c.03-1.626.123-3.238.123-4.871 0-131.297-98.86-239.443-226.191-254.219zM392.75 143.097a8.185 8.185 0 01-4.613 1.419 8.231 8.231 0 01-6.847-3.637l-17.202-25.46a8.245 8.245 0 012.218-11.46c3.766-2.565 8.919-1.556 11.46 2.218l17.202 25.46a8.246 8.246 0 01-2.218 11.46z" fill="#bee86e"/><path d="M339.957 428.043c-141.385 0-256-114.615-256-256 0-49.18 13.896-95.102 37.935-134.107C48.766 83.005 0 163.795 0 256c0 141.385 114.615 256 256 256 92.205 0 172.996-48.766 218.065-121.893-39.006 24.04-84.927 37.936-134.108 37.936z" fill="#00c3ff"/><path d="M367.476 391.226a8.258 8.258 0 01-6.314-13.572l21.677-25.806a8.259 8.259 0 1112.645 10.629l-21.677 25.806a8.244 8.244 0 01-6.331 2.943zM185.573 9.891l-7.347 21.892c-1.452 4.323.879 9.008 5.202 10.46a8.265 8.265 0 0010.46-5.202l10.696-31.87c-6.438 1.311-12.759 2.934-19.011 4.72z" fill="#bee86e"/><path d="M42.874 397.811l7.145-64.914a16.513 16.513 0 00-4.947-13.725L1.001 277.96c3.748 44.083 18.625 84.982 41.873 119.851z" fill="#afd755"/><path d="M256 0c-9.261 0-18.399.519-27.406 1.478l-.86 19.377c-2.161 6.492 1.339 13.508 7.831 15.669 1.298.435 2.621.637 3.919.637 5.185 0 10.024-3.282 11.75-8.468L260.758.12C259.169.091 257.596 0 256 0z" fill="#bee86e"/></g><path d="M451.732 162.142h-1.927v25.274s-2.59.754-8.711-1.09c-4.127-1.244-7.214.257-8.787 1.366-.335.236-.733.627-1.142.627h-.052c-.409 0-.807-.39-1.141-.627-1.574-1.11-4.66-2.61-8.788-1.366-6.12 1.844-8.71 1.09-8.71 1.09v-25.274h-1.928a.937.937 0 00-.937.937v26.351c0 .518.42.937.937.937h16.837c.496 0 .958.278 1.17.727a2.859 2.859 0 005.172 0 1.29 1.29 0 011.17-.727h16.837c.517 0 .937-.42.937-.937v-26.35a.937.937 0 00-.937-.938z" fill="#f87c68"/><path d="M414.403 189.43v-1.864c-1.322.027-1.93-.15-1.93-.15v-25.274h-1.927a.937.937 0 00-.937.937v26.351c0 .518.42.937.937.937h4.794a.937.937 0 01-.937-.937z" fill="#ec625e"/><path d="M449.228 160.125c-1.249.1-3.914.064-8.134-1.208-6.12-1.844-9.955 2.348-9.955 2.348l-.668.877v25.246l.668.896v.035h.026c.41 0 .807-.13 1.141-.367 1.574-1.11 4.66-2.61 8.788-1.366 6.12 1.845 8.97 1.09 8.97 1.09v-26.777a.776.776 0 00-.836-.774z" fill="#dbedff"/><path d="M433.681 159.467c-1.635.806-2.542 1.798-2.542 1.798l-.668.877v25.246l.668.896v.035h.026c.41 0 .807-.13 1.141-.367a10.3 10.3 0 011.375-.815z" fill="#b5dcff"/><path d="M447.043 165.242c-.017 0-.034 0-.05-.002-1.822-.14-3.87-.55-6.087-1.218-2.256-.68-4.438-.577-6.488.303a.65.65 0 01-.513-1.194c2.338-1.005 4.82-1.123 7.376-.353 2.128.641 4.083 1.034 5.81 1.166a.65.65 0 01-.048 1.298zm0 2.762c-.017 0-.034 0-.05-.002-1.821-.14-3.869-.55-6.087-1.218-2.256-.68-4.438-.578-6.488.303a.65.65 0 01-.513-1.194c2.338-1.005 4.82-1.124 7.376-.353 2.128.641 4.083 1.034 5.81 1.166a.65.65 0 01-.048 1.298zm0 13.808c-.017 0-.034 0-.05-.002-1.822-.14-3.87-.55-6.087-1.218-2.256-.68-4.438-.577-6.488.303a.65.65 0 01-.513-1.194c2.338-1.004 4.82-1.123 7.376-.353 2.128.641 4.083 1.034 5.81 1.166a.65.65 0 01-.048 1.298zm0 2.762c-.017 0-.034 0-.05-.002-1.822-.14-3.87-.55-6.087-1.218-2.256-.68-4.438-.578-6.488.303a.65.65 0 01-.513-1.194c2.338-1.005 4.82-1.123 7.376-.353 2.128.641 4.083 1.034 5.81 1.166a.65.65 0 01-.048 1.298zm0-13.809c-.017 0-.034 0-.05-.002-1.822-.14-3.87-.55-6.087-1.217-2.256-.68-4.438-.578-6.488.303a.65.65 0 01-.513-1.194c2.338-1.005 4.82-1.124 7.376-.354 2.128.642 4.083 1.034 5.81 1.167a.65.65 0 01-.048 1.297zm0 5.524c-.017 0-.034 0-.05-.002-1.821-.14-3.869-.55-6.087-1.218-2.256-.68-4.438-.578-6.488.303a.65.65 0 01-.513-1.194c2.338-1.005 4.82-1.124 7.376-.353 2.129.641 4.083 1.034 5.81 1.166a.65.65 0 01-.048 1.298zm0-2.762c-.017 0-.034 0-.05-.002-1.822-.14-3.87-.55-6.087-1.218-2.256-.68-4.438-.578-6.488.303a.65.65 0 01-.513-1.194c2.338-1.004 4.82-1.123 7.376-.353 2.128.641 4.083 1.034 5.81 1.166a.65.65 0 01-.048 1.298zm0 5.523l-.05-.001c-1.822-.14-3.87-.55-6.087-1.218-2.256-.68-4.438-.578-6.488.303a.65.65 0 11-.513-1.194c2.338-1.005 4.82-1.124 7.376-.354 2.128.642 4.083 1.034 5.81 1.167a.65.65 0 01-.048 1.297z" fill="#8bcaff"/><path d="M413.05 160.125c1.249.1 3.915.064 8.134-1.208 6.12-1.844 9.955 2.348 9.955 2.348v27.054h-.026c-.409 0-.807-.13-1.141-.367-1.574-1.11-4.66-2.61-8.788-1.366-6.12 1.844-8.97 1.09-8.97 1.09v-26.777c0-.453.385-.81.837-.774z" fill="#dbedff"/><path d="M415.073 160.121c-.88.06-1.552.042-2.022.004a.776.776 0 00-.838.774v26.777s.929.245 2.86.114z" fill="#b5dcff"/><path d="M415.235 165.242a.65.65 0 01-.049-1.298c1.728-.132 3.683-.525 5.811-1.166 2.557-.77 5.038-.652 7.376.353a.65.65 0 01-.513 1.194c-2.05-.88-4.232-.982-6.488-.303-2.218.669-4.265 1.078-6.086 1.218a.596.596 0 01-.05.002zm0 2.762a.65.65 0 01-.048-1.298c1.727-.132 3.682-.525 5.81-1.166 2.557-.77 5.038-.652 7.376.353a.65.65 0 01-.513 1.194c-2.05-.881-4.232-.983-6.488-.303-2.218.668-4.266 1.078-6.086 1.218a.598.598 0 01-.05.002zm0 13.808a.65.65 0 01-.049-1.298c1.728-.132 3.683-.525 5.81-1.166 2.557-.77 5.039-.652 7.377.353a.65.65 0 01-.513 1.194c-2.05-.88-4.232-.983-6.488-.303-2.218.669-4.265 1.078-6.086 1.218a.593.593 0 01-.05.002zm0 2.762a.65.65 0 01-.049-1.298c1.728-.133 3.683-.525 5.811-1.166 2.557-.77 5.038-.652 7.376.353a.65.65 0 01-.513 1.194c-2.05-.88-4.232-.983-6.488-.303-2.218.668-4.265 1.078-6.086 1.218a.634.634 0 01-.05.002zm0-13.809a.65.65 0 01-.049-1.297c1.728-.133 3.683-.525 5.81-1.167 2.557-.77 5.039-.651 7.377.354a.65.65 0 01-.513 1.194c-2.05-.881-4.232-.983-6.488-.304-2.218.669-4.265 1.079-6.086 1.218a.593.593 0 01-.05.002zm0 5.524a.65.65 0 01-.048-1.298c1.727-.132 3.682-.525 5.81-1.166 2.557-.77 5.038-.652 7.376.353a.65.65 0 01-.513 1.194c-2.05-.881-4.232-.983-6.488-.303-2.218.668-4.266 1.078-6.086 1.218a.635.635 0 01-.05.002zm0-2.762a.65.65 0 01-.049-1.298c1.728-.132 3.683-.525 5.811-1.166 2.556-.77 5.038-.652 7.376.353a.65.65 0 01-.513 1.194c-2.05-.88-4.232-.982-6.488-.303-2.217.669-4.265 1.078-6.086 1.218a.6.6 0 01-.05.002zm0 5.523a.65.65 0 01-.048-1.297c1.727-.133 3.682-.525 5.81-1.167 2.556-.77 5.038-.651 7.376.354a.65.65 0 01-.513 1.194c-2.05-.881-4.232-.983-6.488-.303-2.218.668-4.265 1.078-6.086 1.217a.635.635 0 01-.05.002z" fill="#8bcaff"/><path d="M54.29 92.82c-1.18 1.18-3.039 1.582-4.596 1.03l-7.922 8.005-6.883.653c-.754-.754-1.18-1.683-1.407-2.437v-.05c-.477-1.557-.075-2.562-1.256-3.718l-2.713-3.517 9.53-9.588a4.462 4.462 0 011.03-4.597c1.733-1.708 4.521-1.708 6.23 0l3.993 3.994 3.995 3.995c1.708 1.733 1.708 4.521 0 6.23z" fill="#cae8f9"/><path d="M54.29 92.82c-1.18 1.18-3.039 1.582-4.596 1.03l-7.922 8.005-6.883.653c-.754-.754-1.18-1.683-1.407-2.437v-.05l16.814-17.426 3.995 3.995c1.708 1.733 1.708 4.521 0 6.23z" fill="#b7e0f6"/><path d="M41.772 101.855L25.82 117.807a8.051 8.051 0 01-5.702 2.386c-1.683 0-3.316-.527-4.623-1.607a7.647 7.647 0 01-2.788-5.477 7.548 7.548 0 012.21-5.702l12.235-12.234 2.36-2.387.579.05c.226 0 2.386.176 3.918 1.684 1.08 1.08 1.458 2.461 1.633 3.265.05.352.076.578.076.654 0 .025.1 1.431.954 2.31.855.83 2.286.955 2.286.955z" fill="#19dec1"/><path d="M41.772 101.855L25.82 117.807a8.051 8.051 0 01-5.702 2.386c-1.683 0-3.316-.527-4.623-1.607l20.147-20.8c.05.351.076.577.076.653 0 .025.1 1.431.954 2.31.855.83 2.286.955 2.286.955z" fill="#17ceb4"/><g fill="#cae8f9" transform="translate(12.699 77.32) scale(.08374)"><circle r="15" cy="295.62" cx="196.17"/><circle r="15" cy="389.69" cx="102.1"/><path d="M185.5 369.8c-5.7 6-15.3 6-21.301 0-2.098-2.1-3.6-5.099-3.6-8.099-1.199-4.501.3-9.6 3.6-12.9 3.602-3.602 8.101-4.801 12.601-4.2 3.3.3 6.299 1.8 8.699 4.2 6.001 5.699 6.001 15.299.001 20.999z"/></g><path d="M28.232 108.286c-.478.502-1.281.502-1.784 0a.996.996 0 01-.301-.678l1.356-1.432c.277.025.528.15.729.352a1.214 1.214 0 010 1.758z" fill="#b7e0f6"/><circle cx="70.704" cy="338.258" r="33.42" fill="none" stroke="#03a1da" stroke-width="4.358"/><circle cx="430.832" cy="175.539" r="33.42" fill="none" stroke="#03a1da" stroke-width="4.358"/><circle cx="35.599" cy="99.143" r="33.42" fill="none" stroke="#03a1da" stroke-width="4.358"/><circle cx="261.881" cy="35.599" r="33.42" fill="none" stroke="#03a1da" stroke-width="4.358"/><path transform="matrix(.99565 .09315 .15363 .98813 0 0)" fill="#03a1da" stroke="#03a1da" stroke-width="1.645" d="M20.596 129.618h5.95v176.169h-5.95z"/><path transform="matrix(-.00964 -.99995 .99584 .09116 0 0)" fill="#03a1da" stroke="#03a1da" stroke-width="1.744" d="M-326.13 100.618h5.445v216.235h-5.445z"/><circle cx="352.964" cy="354.06" r="33.42" fill="none" stroke="#03a1da" stroke-width="4.358"/><path d="M340.205 345.305a3.467 3.467 0 00-5.945 2.32 2.772 2.772 0 103.914 3.538 3.47 3.47 0 001.548-.605 2.772 2.772 0 10.483-5.253z" fill="#02a437"/><path d="M338.985 351.648a.693.693 0 01-.646-.441l-1.26-3.229a.693.693 0 011.292-.504l1.26 3.229a.693.693 0 01-.646.945z" fill="#027e2a"/><path d="M340.277 351.144a.73.73 0 01-.064-.003.693.693 0 01-.627-.754 5.375 5.375 0 011.357-3.094.693.693 0 111.028.93 3.981 3.981 0 00-1.005 2.29.693.693 0 01-.69.63zm-2.584 1.008a.69.69 0 01-.464-.18 3.98 3.98 0 00-2.292-1.004.693.693 0 11.127-1.38 5.377 5.377 0 013.094 1.356.693.693 0 01-.465 1.208z" fill="#027e2a"/><path d="M347.11 364.15l-5.165 2.016-4.978-9.979a3.798 3.798 0 012.018-5.232 3.797 3.797 0 015.028 2.483z" fill="#fd9226"/><path d="M354.358 334.28h2.772v19.405h-2.772z" fill="#026a23"/><path d="M355.667 348.309a5.979 5.979 0 00-.327-1.22l-3.06-7.958-2.08.693 2.969 7.719a7.445 7.445 0 01.496 2.674v2.46z" fill="#027226"/><path d="M358.717 360.42a2.635 2.635 0 010 3.163l-.01.013a2.945 2.945 0 01-2.356 1.178h-1.213a2.945 2.945 0 01-2.356-1.178l-.01-.013a2.635 2.635 0 010-3.162l.893-1.191v-6.553l2.002-4.368.077-.168 3.466-9.01 2.079.693-2.97 7.719a7.445 7.445 0 00-.495 2.674v9.013z" fill="#027e2a"/><path d="M358.717 363.583l-.01.013a2.934 2.934 0 01-1.116.904l-4.143-.26a2.918 2.918 0 01-.666-.644l-.01-.013a2.635 2.635 0 010-3.162l.061-.082.832-.416 4.159-9.706v9.013l.893 1.19a2.635 2.635 0 010 3.163z" fill="#027e2a"/><path d="M337.772 358.073a.693.693 0 01-.252-1.34l1.292-.503a.693.693 0 01.504 1.291l-1.291.504a.693.693 0 01-.253.048zm3.874-1.513a.693.693 0 01-.252-1.338l1.291-.504a.693.693 0 11.504 1.291l-1.29.504a.693.693 0 01-.253.048zm-2.759 4.032a.693.693 0 01-.252-1.339l1.83-.693a.693.693 0 01.504 1.292l-1.83.693a.693.693 0 01-.252.047zm4.413-1.7a.693.693 0 01-.252-1.34l.645-.251a.693.693 0 01.504 1.291l-.645.252a.693.693 0 01-.252.048z" fill="#e78244"/><path d="M347.168 349.527h1.645a2.945 2.945 0 012.634 1.629l.572 1.143h-1.645a2.945 2.945 0 01-2.634-1.628z" fill="#02a437"/><path d="M350.515 356.284a.693.693 0 01-.693-.693 4.933 4.933 0 013.955-4.824l.067-.014a.693.693 0 01.272 1.36l-.068.013a3.543 3.543 0 00-2.84 3.465.693.693 0 01-.693.693z" fill="#8f6934"/><path d="M358.717 363.583l-.01.013a2.934 2.934 0 01-1.116.904l-4.143-.26a2.918 2.918 0 01-.666-.644l-.01-.013a2.635 2.635 0 010-3.162l.061-.082.832-.416 4.159-9.706v9.013l.893 1.19a2.635 2.635 0 010 3.163z" fill="#cbcbcb"/><path d="M348.033 354.205a2.047 2.047 0 011.703.911.936.936 0 001.557 0 2.047 2.047 0 011.703-.911 2.047 2.047 0 011.598.768l.163.204a4.505 4.505 0 01.303 5.201l-1.353 2.164a1.431 1.431 0 01-1.213.673 1.431 1.431 0 01-1.012-.42 1.367 1.367 0 00-1.934 0 1.432 1.432 0 01-1.012.42 1.431 1.431 0 01-1.214-.673l-1.352-2.164a4.505 4.505 0 01.302-5.201l.163-.204a2.047 2.047 0 011.598-.768z" fill="#e82f3e"/><path d="M348.52 359.923a.691.691 0 01-.49-.203 2.05 2.05 0 01-.386-2.37l.255-.51a.693.693 0 011.24.62l-.255.51a.666.666 0 00.125.77.693.693 0 01-.49 1.183z" fill="#ff6268"/><path d="M332.873 366.16h40.198v4.159h-40.198z" fill="#ea9d2d"/><path d="M337.032 368.933h-1.386a.693.693 0 010-1.387h1.386a.693.693 0 010 1.387zm33.267 0h-1.387a.693.693 0 010-1.387h1.387a.693.693 0 010 1.387z" fill="#c38325"/><path d="M332.873 370.319h40.198v4.158h-40.198z" fill="#fbb540"/><path d="M337.032 373.09h-1.386a.693.693 0 010-1.385h1.386a.693.693 0 010 1.386zm16.633-4.157h-1.386a.693.693 0 010-1.387h1.386a.693.693 0 010 1.387zm0 4.157h-1.386a.693.693 0 010-1.385h1.386a.693.693 0 010 1.386zm16.634 0h-1.387a.693.693 0 010-1.385h1.387a.693.693 0 010 1.386z" fill="#c38325"/><path d="M361.289 357.844l.609.609a5.02 5.02 0 011.47 3.549h2.08v-.693a5.02 5.02 0 00-1.471-3.55l-.609-.608z" fill="#027e2a"/><path d="M369.606 357.844l-.61.609a5.02 5.02 0 00-1.47 3.549h-2.079v-.693a5.02 5.02 0 011.47-3.55l.61-.608z" fill="#027e2a"/><path d="M373.07 352.472a2.594 2.594 0 00-.936-1.998 2.598 2.598 0 00-2.355-3.193 5.197 5.197 0 00-9.01 0 2.598 2.598 0 00-2.355 3.193 2.598 2.598 0 00-.349 3.644 3.465 3.465 0 005.177 4.381 4.309 4.309 0 002.032-.829 4.309 4.309 0 002.032.83 3.465 3.465 0 005.176-4.382 2.587 2.587 0 00.589-1.646z" fill="#02a437"/><path d="M367.235 349.527a.693.693 0 01-.654-.462 1.387 1.387 0 00-2.614 0 .693.693 0 01-1.307-.462 2.773 2.773 0 015.228 0 .693.693 0 01-.653.924zm-5.426 4.851a2.08 2.08 0 010-4.158.693.693 0 010 1.386.693.693 0 000 1.386.693.693 0 010 1.386z" fill="#027e2a"/><path d="M332.873 362.002h40.198v4.158h-40.198z" fill="#fbb540"/><path d="M337.032 364.774h-1.386a.693.693 0 010-1.386h1.386a.693.693 0 010 1.386zm33.267 0h-1.387a.693.693 0 010-1.386h1.387a.693.693 0 010 1.386zm-16.634 0h-1.386a.693.693 0 010-1.386h1.386a.693.693 0 010 1.386z" fill="#c38325"/><path transform="matrix(-.8942 -.44766 .4064 -.9137 0 0)" fill="#03a1da" stroke="#03a1da" stroke-width="1.286" d="M-471.859-125.471h5.053V1.191h-5.053z"/><path transform="matrix(.05292 .9986 -.96295 .26967 0 0)" fill="#03a1da" stroke="#03a1da" stroke-width="1.523" d="M97.481-230.397h5.295v169.61h-5.295z"/><path transform="matrix(-.78276 .62232 -.75654 -.65395 0 0)" fill="#03a1da" stroke="#03a1da" stroke-width="1.513" d="M-170.188-380.26h5.465v162.214h-5.465z"/></svg>