<svg data-name="Layer 1" xmlns="http://www.w3.org/2000/svg" width="760.519" height="442.078" viewBox="0 0 760.519 442.078"><path d="M372.362 339.163a6.481 6.481 0 01-4.679-1.983l-10.25-10.619a6.508 6.508 0 01.162-9.191l57.516-54.85a10.787 10.787 0 0115.153.314l4.383 4.54a10.63 10.63 0 013 7.62 10.767 10.767 0 01-3.314 7.553l-57.46 54.798a6.474 6.474 0 01-4.511 1.818zm141.277 0a6.48 6.48 0 01-4.513-1.82l-57.459-54.796a10.767 10.767 0 01-3.313-7.553 10.63 10.63 0 012.999-7.62l4.383-4.54a10.786 10.786 0 0115.153-.313l57.514 54.847a6.508 6.508 0 01.164 9.193l-.36-.347.36.347-10.25 10.62a6.48 6.48 0 01-4.678 1.982z" fill="#6c63ff"/><path d="M216 366.989H0v-47.547a6.691 6.691 0 013.13-5.684l101.276-64.041a6.756 6.756 0 017.188 0l101.275 64.041a6.691 6.691 0 013.131 5.684z" fill="#ccc"/><path fill="#3f3d56" d="M702 405H330v-2h370V254h2v151zM96 195h-2V44h406v2H96v149z"/><path d="M181.582 370.154H34.418a6.733 6.733 0 01-6.726-6.726v-95.736a6.733 6.733 0 016.726-6.725h147.164a6.733 6.733 0 016.726 6.725v95.736a6.733 6.733 0 01-6.726 6.726z" fill="#e6e6e6"/><path d="M87.429 283.12H43.912a4.352 4.352 0 110-8.703H87.43a4.352 4.352 0 110 8.704zm83.472 22.155H44.308a4.747 4.747 0 010-9.495H170.9a4.747 4.747 0 010 9.495zm0 16.615H44.308a4.747 4.747 0 110-9.495H170.9a4.747 4.747 0 110 9.495zm0 16.615H44.308a4.747 4.747 0 010-9.494H170.9a4.747 4.747 0 010 9.494z" fill="#fff"/><path d="M209.275 420.791H6.725A6.733 6.733 0 010 414.066v-87.033a6.733 6.733 0 016.725-6.725l.154.03 89.117 37.597a31.064 31.064 0 0024.008 0l89.19-37.627h.08a6.733 6.733 0 016.726 6.725v87.033a6.733 6.733 0 01-6.725 6.725z" fill="#ccc"/><path d="M707.074 112.26h-90.296a6.922 6.922 0 01-6.915-6.914V6.915A6.922 6.922 0 01616.778 0h90.296a6.922 6.922 0 016.915 6.915v98.431a6.922 6.922 0 01-6.915 6.915z" fill="#e6e6e6"/><path d="M671.28 22.778h-44.74a4.474 4.474 0 110-8.949h44.74a4.474 4.474 0 010 8.949zm24.812 22.777h-69.146a4.88 4.88 0 110-9.762h69.146a4.88 4.88 0 010 9.762zm0 17.083h-69.146a4.88 4.88 0 010-9.762h69.146a4.88 4.88 0 010 9.762zm0 17.083h-69.146a4.88 4.88 0 110-9.761h69.146a4.88 4.88 0 010 9.761z" fill="#fff"/><path d="M715.3 143.545l-84.115-32.832a6.922 6.922 0 01-3.928-8.955l35.79-91.695a6.922 6.922 0 018.955-3.927l84.117 32.832a6.922 6.922 0 013.927 8.955l-35.79 91.695a6.922 6.922 0 01-8.955 3.927z" fill="#e6e6e6"/><path d="M714.493 47.172l-41.679-16.268a4.474 4.474 0 013.254-8.336l41.68 16.268a4.474 4.474 0 01-3.255 8.336zm14.832 30.24L664.91 52.27a4.88 4.88 0 013.55-9.093l64.413 25.141a4.88 4.88 0 11-3.55 9.094zm-6.212 15.914L658.7 68.184a4.88 4.88 0 113.55-9.093l64.413 25.141a4.88 4.88 0 01-3.55 9.094zm-6.211 15.914l-64.414-25.142a4.88 4.88 0 013.55-9.093l64.413 25.141a4.88 4.88 0 01-3.55 9.094z" fill="#fff"/><path d="M742.054 79.315h-97.316L629.267 54.7a6.508 6.508 0 00-5.51-3.045h-23.25A6.508 6.508 0 00594 58.164v116.328a6.508 6.508 0 006.508 6.508h141.546a6.508 6.508 0 006.508-6.508v-88.67a6.508 6.508 0 00-6.508-6.507z" fill="#ccc"/><path d="M415.435 358.154h59a6 6 0 016 6v26.25a35.5 35.5 0 01-35.5 35.5 35.5 35.5 0 01-35.5-35.5v-26.25a6 6 0 016-6z" fill="#2f2e41"/><path d="M478.466 405.102h-67.063a6.507 6.507 0 01-6.5-6.5V289.657a40.031 40.031 0 0180.063 0v108.945a6.507 6.507 0 01-6.5 6.5z" fill="#2f2e41"/><circle cx="444.543" cy="187.309" r="53.519" fill="#6c63ff"/><path d="M450.781 205.178c-3.306-.093-7.421-.208-10.59-2.523a8.133 8.133 0 01-3.2-6.072 5.47 5.47 0 011.86-4.493c1.656-1.399 4.073-1.728 6.679-.962l-2.7-19.726 1.982-.271 3.173 23.19-1.654-.759c-1.919-.88-4.552-1.327-6.188.055a3.514 3.514 0 00-1.153 2.895 6.147 6.147 0 002.381 4.528c2.466 1.802 5.746 2.034 9.466 2.139zm-28.521-32.074h10.772v2H422.26zm34 0h10.772v2H456.26zm40.833 268.974a6.534 6.534 0 01-1.486-.172l-119.809-27.9a6.5 6.5 0 01-4.856-7.805l3.347-14.375a6.5 6.5 0 017.805-4.856l119.809 27.9a6.5 6.5 0 014.856 7.805l-3.348 14.375a6.506 6.506 0 01-6.318 5.028z" fill="#2f2e41"/><path d="M390.808 436.203a6.51 6.51 0 01-6.442-5.661l-1.906-14.636a6.508 6.508 0 015.605-7.285l121.984-15.892a6.5 6.5 0 017.285 5.605l1.907 14.636a6.5 6.5 0 01-5.606 7.285l-121.983 15.892a6.501 6.501 0 01-.844.056zm18.379-290.717c-8.674-.99-15.392-9.3-16.13-17.733-.878-10.032 4.965-19.56 12.98-25.19 8.382-5.887 18.826-8.346 28.93-8.887a79.51 79.51 0 0154.348 17.914c7.572 6.288 14.643 14.298 17.323 23.974 2.327 8.403.433 17.922-6.325 23.807a15.976 15.976 0 01-12.26 3.775c-5.244-.545-10.082-3.302-14.27-6.347-8.147-5.923-14.835-14.175-24.76-17.27-7.279-2.27-16.723-.272-21.17 6.309a11.98 11.98 0 00-1.913 5.019 1.553 1.553 0 001.048 1.845 1.51 1.51 0 001.845-1.048c1.168-8.29 11.36-11.382 18.513-9.49 10.428 2.76 17.429 12.067 25.985 17.98 4.498 3.108 9.615 5.593 15.132 6.04a18.79 18.79 0 0013.204-4.057c7.31-5.772 10.105-15.7 8.488-24.637-1.871-10.35-8.838-19.222-16.482-26.09a82.447 82.447 0 00-56.344-20.814c-10.573.243-21.606 2.426-30.715 8.014-8.836 5.421-15.665 14.49-16.558 25.032-.785 9.28 4.193 18.984 12.739 23.05a19.949 19.949 0 006.392 1.804c1.915.218 1.9-2.784 0-3z" fill="#2f2e41"/><circle cx="444.963" cy="342.271" r="34.037" fill="#e6e6e6"/><path fill="#6c63ff" d="M442.126 357.321l-10.802-13.891 6.282-4.886 5.114 6.576L460 326.881l5.778 5.474-23.652 24.966zm41.211 6.829a6.613 6.613 0 01-.679-.036 6.457 6.457 0 01-4.376-2.365l-9.31-11.453a6.5 6.5 0 01.942-9.144l32.946-27.556a6.51 6.51 0 019.15.939l9.31 11.452a6.5 6.5 0 01-.943 9.144l-32.946 27.556a6.459 6.459 0 01-4.094 1.462zm-80.674 0a6.451 6.451 0 01-4.089-1.458l-32.956-27.566a6.5 6.5 0 01-.938-9.14l9.31-11.451a6.508 6.508 0 019.144-.944l32.957 27.566a6.5 6.5 0 01.938 9.14l-9.311 11.452a6.457 6.457 0 01-4.376 2.365 6.62 6.62 0 01-.68.035z"/></svg>